# xmcd
#
# Track frame offsets: 
#        150
#        10594
#        22417
#        34159
#        46743
#        59395
#        72873
#        84631
#        97388
#        109697
#        122347
#        136111
#        150079
#        161840
#        174730
#        183360
#        196079
#        209624
#        221910
#        232876
#
# Disc length: 3257 seconds
#
# Revision: 0
# Processed by: cddbd v1.5.2PL0 Copyright (c) Steve Scherf et al.
# Submitted via: ExactAudioCopy v1.0b3
#
DISCID=110cb714
DTITLE=Travis, Merle - A Definitive Collection [Disc 1]
DYEAR=1900
DGENRE=Country
TTITLE0=Ain't That A Crying Shame
TTITLE1=Blues Stay Away From Me
TTITLE2=Cincinnati Lou
TTITLE3=Crazy Boogie
TTITLE4=Dark As A Dungeon
TTITLE5=Divorce Me C.O.D.
TTITLE6=Fat Gal
TTITLE7=I Am A Pilgrim
TTITLE8=I Like My Chicken Fryin' Size
TTITLE9=I'm A Natural Born Gambling Man
TTITLE10=I'm Sick And Tired Of You Now
TTITLE11=John Henry
TTITLE12=Kentucky Means Paradise
TTITLE13=Lawdy What A Girl
TTITLE14=Lost John
TTITLE15=Louisiana Boogie
TTITLE16=Merle's Boogie Woogie
TTITLE17=Missouri
TTITLE18=Guitar Rag
TTITLE19=Muskrat
EXTD=
EXTT0=
EXTT1=
EXTT2=
EXTT3=
EXTT4=
EXTT5=
EXTT6=
EXTT7=
EXTT8=
EXTT9=
EXTT10=
EXTT11=
EXTT12=
EXTT13=
EXTT14=
EXTT15=
EXTT16=
EXTT17=
EXTT18=
EXTT19=
PLAYORDER=
